<?xml version="1.0" encoding="utf-8"?>
<!-- Generator: Adobe Illustrator 25.0.0, SVG Export Plug-In . SVG Version: 6.00 Build 0)  -->
<svg version="1.1" id="Layer_1" xmlns="http://www.w3.org/2000/svg" xmlns:xlink="http://www.w3.org/1999/xlink" x="0px" y="0px"
	 viewBox="0 0 94 94" style="enable-background:new 0 0 94 94;" xml:space="preserve">
<style type="text/css">
	.st0{fill:url(#SVGID_1_);}
	.st1{fill:url(#SVGID_2_);stroke:#000000;stroke-width:0.5;stroke-miterlimit:10;}
</style>
<linearGradient id="SVGID_1_" gradientUnits="userSpaceOnUse" x1="47.5976" y1="92.4834" x2="46.38" y2="3.8872" gradientTransform="matrix(1 0 0 -1 0 96)">
	<stop  offset="0" style="stop-color:#D89E76"/>
	<stop  offset="1" style="stop-color:#7F4924"/>
</linearGradient>
<circle class="st0" cx="47" cy="47" r="47"/>
<linearGradient id="SVGID_2_" gradientUnits="userSpaceOnUse" x1="13.5134" y1="60.4916" x2="76.2951" y2="38.2525" gradientTransform="matrix(1 0 0 -1 0 96)">
	<stop  offset="0.3013" style="stop-color:#049B64"/>
	<stop  offset="0.4439" style="stop-color:#088658"/>
	<stop  offset="0.7366" style="stop-color:#115039"/>
	<stop  offset="1" style="stop-color:#1B1B1B"/>
</linearGradient>
<path class="st1" d="M59.3,24.7c-1.6,3.7-4.3,18.4-13.1,32c-0.3,0.3,0.1,0.7,0.6,0.6c9.7-7.2,18.8-14.8,20.9-16.6
	c0.1-0.1,0.6-0.1,0.6,0.1c2.5,8.8,3.8,13.1,5.9,20.7c0,0.3-0.1,0.4-0.3,0.4c-8.1,0.4-38.6,15.9-42.7,17.9c-0.3,0.1-0.4,0-0.6-0.3
	c-1-4.4-1.3-6.6-2.2-11.2c0-0.1,0-0.3,0.1-0.3c1.3-1.6,13.7-16.6,12.5-33.6c0-0.3-0.3-0.4-0.6-0.3c-7.8,4.3-11.8,6.8-19.1,11.5
	c-0.1,0.1-0.4,0-0.6-0.1c-2.6-7.8,1-15.6,1.2-25.4c0-0.3,0.3-0.4,0.6-0.3C37,27,43.5,17.8,60.7,14c0.3,0,0.4,0.1,0.4,0.4
	C61.2,18.7,60.4,20.9,59.3,24.7L59.3,24.7z"/>
</svg>
