<svg xmlns="http://www.w3.org/2000/svg" xmlns:xlink="http://www.w3.org/1999/xlink" viewBox="0 0 54.69 92.78">
  <defs>
    <linearGradient id="Новый_образец_градиента_1" data-name="Новый образец градиента 1" y1="46.39" x2="54.69" y2="46.39" gradientUnits="userSpaceOnUse">
      <stop offset="0" stop-color="#cca454"/>
      <stop offset="0.06" stop-color="#d2aa5a"/>
      <stop offset="0.22" stop-color="#d4ac5c"/>
      <stop offset="0.29" stop-color="#d8b364"/>
      <stop offset="0.4" stop-color="#e3c67a"/>
      <stop offset="0.54" stop-color="#f4e69e"/>
      <stop offset="0.59" stop-color="#fcf4ae"/>
      <stop offset="0.67" stop-color="#f9f0aa"/>
      <stop offset="0.74" stop-color="#f2e59d"/>
      <stop offset="0.82" stop-color="#e5d288"/>
      <stop offset="0.91" stop-color="#d2b76b"/>
      <stop offset="0.99" stop-color="#bb9546"/>
      <stop offset="1" stop-color="#b78f3f"/>
    </linearGradient>
  </defs>
  <g id="Шар_2" data-name="Шар 2">
    <g id="Слой_1" data-name="Слой 1">
      <path d="M45.51,85.09A23.79,23.79,0,0,0,53,67.31c0-7.43-2.44-13-7.68-17.62l-.94-.83.87-.91,9.4-9.78-5.8-5.58L38.08,43.84l-.61.63-.79-.38c-1.3-.65-2.68-1.27-4.09-1.86L31,41.56l1.22-1.27,11.58-12L38,22.67,23.69,37.52l-.63.65-.79-.42c-7.77-4.06-10.94-8.49-10.94-15.29,0-7.47,5.74-15,18.56-15a36.34,36.34,0,0,1,16.7,3.81l2.49-7.38C46.3,2.43,40.16,0,30.3,0,13.46,0,1.7,9.8,1.7,23.83c0,8.56,4.38,15.26,13.39,20.49l1.32.77-1.05,1.1L6.07,55.85l5.8,5.58L23.68,49.14l.55-.57.73.28.16.06.12,0c1.43.53,2.8,1.09,4.09,1.67l1.56.69-1.18,1.24L17,65.77l5.8,5.58L37,56.59l.84-.88.87.86a15.43,15.43,0,0,1,4.7,11.7c0,10.28-8,16.92-20.48,16.92A41.84,41.84,0,0,1,2.41,79.8L0,87.43c4.59,2.73,13.33,5.35,22.1,5.35C32,92.78,40,90.12,45.51,85.09Z" style="fill: url(#Новый_образец_градиента_1)"/>
    </g>
  </g>
</svg>
